<svg width="150" height="42" viewBox="0 0 150 42" fill="none" xmlns="http://www.w3.org/2000/svg">
<path fill-rule="evenodd" clip-rule="evenodd" d="M95.4109 36.8499C95.7541 36.2837 96.3002 35.829 97.1992 35.829C98.4622 35.829 99.2 36.6774 99.2 37.9212V41.1643H98.4222V38.1129C98.4222 37.1426 97.8969 36.5363 96.9771 36.5363C96.0781 36.5363 95.4109 37.1931 95.4109 38.173V41.1643H94.633V33.7881H95.4109V36.8499ZM38.7759 35.5507C38.7759 34.9549 38.9379 34.4994 39.2306 34.2067C39.4937 33.9444 39.877 33.8025 40.3526 33.8025C40.7166 33.8025 40.9588 33.8434 41.2114 33.934V34.6108C40.9284 34.5298 40.7166 34.4793 40.4536 34.4793C39.8473 34.4793 39.549 34.8434 39.549 35.5908V35.9389H41.2114V36.586H39.549V41.1643H38.7759V36.586H37.986V35.9389H38.7759V35.5507ZM58.0416 34.1602L61.0793 41.1643H60.2293L59.3488 39.0937H55.6567L54.7697 41.1643H53.9598L56.9975 34.1602C57.0905 33.9461 57.295 33.8082 57.5204 33.8082C57.7441 33.8082 57.9486 33.9461 58.0416 34.1602ZM65.028 34.0928H64.2501V41.1634H65.028V34.0928ZM62.6519 41.1642H61.874V34.0936H62.6519V41.1642ZM57.5091 34.7689L59.0737 38.4465H55.9334L57.5091 34.7689ZM47.3911 38.5371V38.5572C47.3911 40.0327 46.1649 41.2853 44.5025 41.2853C42.8505 41.2853 41.646 40.0528 41.646 38.5772V38.5572C41.646 37.0816 42.861 35.829 44.5242 35.829C46.1762 35.829 47.3911 37.0616 47.3911 38.5371ZM44.5026 36.5163C45.6646 36.5163 46.5492 37.4361 46.5492 38.5572V38.578C46.5492 39.6791 45.7183 40.5885 44.5243 40.5885C43.3622 40.5885 42.4881 39.6791 42.4881 38.5572V38.5371C42.4881 37.4361 43.3085 36.5163 44.5026 36.5163ZM49.4713 37.3037V35.9396H48.6934V41.1634H49.4713V39.0816C49.4713 37.505 50.4007 36.687 51.5427 36.687H51.6036V35.8482C50.6133 35.8089 49.8554 36.4352 49.4713 37.3037ZM32.4342 35.829C31.5352 35.829 30.9891 36.2837 30.6459 36.8499V35.9236H29.868V41.1642H30.6459V38.173C30.6459 37.1931 31.3131 36.5363 32.2121 36.5363C33.1319 36.5363 33.6572 37.1426 33.6572 38.1129V41.1642H34.435V37.9212C34.435 36.6774 33.6973 35.829 32.4342 35.829ZM25.9354 40.5676C26.8247 40.5676 27.5015 39.9108 27.5015 38.9309V35.9228H28.2698V41.1635H27.5015V40.2541C27.1479 40.8202 26.6122 41.2749 25.7132 41.2749C24.4502 41.2749 23.7124 40.4265 23.7124 39.1835V35.9228H24.4903V38.991C24.4903 39.9614 25.0155 40.5676 25.9354 40.5676ZM17.7252 34.7095V41.1643H18.5231V38.0704H22.4374V37.3896H18.5231V34.817H22.8921V34.092H18.3427C18.0019 34.0912 17.7252 34.3679 17.7252 34.7095ZM72.5839 36.8499C72.9271 36.2837 73.4732 35.829 74.3722 35.829C75.6353 35.829 76.3731 36.6774 76.3731 37.9212V41.1642H75.5952V38.1129C75.5952 37.1426 75.0699 36.5363 74.1501 36.5363C73.2511 36.5363 72.5839 37.1931 72.5839 38.173V41.1642H71.806V35.9236H72.5839V36.8499ZM86.8903 38.5371V38.5572C86.8903 40.0327 85.6641 41.2853 84.0017 41.2853C82.3497 41.2853 81.1452 40.0528 81.1452 38.5772V38.5572C81.1452 37.0816 82.3602 35.829 84.0234 35.829C85.6754 35.829 86.8903 37.0616 86.8903 38.5371ZM84.0018 36.5163C85.1637 36.5163 86.0483 37.4361 86.0483 38.5572V38.578C86.0483 39.6791 85.2175 40.5885 84.0234 40.5885C82.8614 40.5885 81.9874 39.6791 81.9874 38.5572V38.5371C81.9874 37.4361 82.8077 36.5163 84.0018 36.5163ZM69.4298 41.1643H70.2077V35.9404H69.4298V41.1643ZM69.2246 34.4024C69.2246 34.0744 69.49 33.8082 69.8188 33.8082C70.1476 33.8082 70.4139 34.0744 70.4131 34.4024C70.4131 34.7303 70.1468 34.9966 69.8188 34.9966C69.4908 34.9966 69.2246 34.7311 69.2246 34.4024ZM78.8622 34.3639H78.0843V35.9389H77.2744V36.586H78.0843V39.7793C78.0843 40.8403 78.7211 41.2549 79.5599 41.2549C79.9336 41.2549 80.2263 41.1739 80.4998 41.0327V40.3655C80.2271 40.4971 80.005 40.5476 79.7419 40.5476C79.2167 40.5476 78.863 40.315 78.863 39.6791V36.5868H80.4998V35.9397H78.863V34.3639H78.8622ZM122.052 34.3639H122.83H122.831V35.9397H124.467V36.5868H122.831V39.6791C122.831 40.315 123.184 40.5476 123.71 40.5476C123.973 40.5476 124.195 40.4971 124.467 40.3655V41.0327C124.195 41.1739 123.901 41.2549 123.528 41.2549C122.689 41.2549 122.052 40.8403 122.052 39.7793V36.586H121.242V35.9389H122.052V34.3639ZM132.568 37.3037V35.9396H131.791V41.1634H132.568V39.0816C132.568 37.505 133.498 36.687 134.64 36.687H134.701V35.8482C133.71 35.8089 132.953 36.4352 132.568 37.3037ZM135.961 38.8402H140.386C140.397 38.7488 140.397 38.6887 140.397 38.5884C140.397 37.0624 139.447 35.8298 137.795 35.8298C136.252 35.8298 135.119 37.0415 135.119 38.5475V38.5676C135.119 40.1843 136.371 41.2853 137.904 41.2853C138.888 41.2853 139.544 40.9437 140.083 40.4248L139.684 39.8715C139.231 40.3158 138.691 40.6085 137.925 40.6085C136.932 40.6085 136.079 39.9718 135.961 38.8402ZM139.555 38.2636C139.468 37.3141 138.885 36.4849 137.774 36.4849C136.803 36.4849 136.068 37.2428 135.961 38.2636H139.555ZM127.859 40.5676C128.748 40.5676 129.425 39.9108 129.425 38.9309V35.9228H130.193V41.1635H129.425V40.2541C129.071 40.8202 128.535 41.2749 127.637 41.2749C126.373 41.2749 125.636 40.4265 125.636 39.1835V35.9228H126.414V38.991C126.414 39.9614 126.939 40.5676 127.859 40.5676ZM119.358 38.9309C119.358 39.9108 118.681 40.5676 117.792 40.5676C116.872 40.5676 116.347 39.9614 116.347 38.991V35.9228H115.569V39.1835C115.569 40.4265 116.307 41.2749 117.57 41.2749C118.469 41.2749 119.005 40.8202 119.358 40.2541V41.1635H120.127V35.9228H119.358V38.9309ZM109.581 41.1643V34.7095C109.581 34.3679 109.858 34.0912 110.198 34.092H114.748V34.817H110.379V37.3896H114.293V38.0704H110.379V41.1643H109.581ZM91.6987 34.3639H90.9208V35.9389H90.1109V36.586H90.9208V39.7793C90.9208 40.8403 91.5576 41.2549 92.3964 41.2549C92.7701 41.2549 93.0629 41.1739 93.3363 41.0327V40.3655C93.0637 40.4971 92.8415 40.5476 92.5785 40.5476C92.0532 40.5476 91.6995 40.315 91.6995 39.6791V36.5868H93.3363V35.9397H91.6995V34.3639H91.6987ZM105.608 38.8402C105.62 38.7496 105.62 38.6887 105.62 38.5876C105.62 37.0615 104.67 35.829 103.017 35.8298C101.474 35.8298 100.34 37.0415 100.34 38.5475V38.5676C100.34 40.1843 101.593 41.2853 103.126 41.2853C104.11 41.2853 104.766 40.9437 105.305 40.4248L104.906 39.8715C104.453 40.3158 103.913 40.6085 103.147 40.6085C102.154 40.6085 101.301 39.9718 101.182 38.8402H105.608ZM104.777 38.2636C104.691 37.3141 104.108 36.4849 102.996 36.4849C102.025 36.4849 101.291 37.2428 101.183 38.2636H104.777Z" fill="black"/>
<path fill-rule="evenodd" clip-rule="evenodd" d="M4.46677 0H145.534C148.001 0 150 2.00002 150 4.46677V24.1847C150 26.6515 148 28.6515 145.533 28.6515H12.268V34.0982L1.46914 23.2994C0.528474 22.3587 0 21.0828 0 19.7524V4.46677C0 2.00002 2.00002 0 4.46677 0ZM12.2688 25.0083H146.14V3.64321H3.86138V20.2432L12.2688 28.6507V25.0083Z" fill="#E60000"/>
<path fill-rule="evenodd" clip-rule="evenodd" d="M123.236 10.3016C124.452 10.3016 125.552 10.8413 126.322 11.6529L127.734 9.69535C126.546 8.721 124.962 8.17087 123.236 8.17087C119.6 8.17087 116.469 10.6104 116.469 14.3257C116.469 18.0403 119.6 20.4806 123.236 20.4806C124.962 20.4806 126.546 19.9304 127.734 18.9561L126.321 16.9986C125.551 17.8101 124.451 18.3498 123.235 18.3498C120.917 18.3498 119.328 16.5479 119.328 14.3257C119.328 12.1036 120.918 10.3016 123.236 10.3016ZM114.696 20.2431V9.895C114.696 9.37214 114.45 8.86693 114.018 8.56861C113.308 8.07622 112.334 8.25024 111.839 8.95835C110.92 10.2703 108.165 14.2054 108.165 14.2054C108.165 14.2054 105.409 10.2703 104.491 8.95835C103.996 8.25024 103.021 8.07702 102.311 8.56861C101.881 8.86693 101.635 9.37134 101.635 9.895V20.2431H104.144V12.6248C104.144 12.6248 106.287 15.6858 107.002 16.7058C107.568 17.5134 108.764 17.5134 109.329 16.7058C110.044 15.6858 112.187 12.6248 112.187 12.6248V20.2431H114.696ZM80.3561 8.95915C81.5935 10.7266 85.3064 16.029 85.3064 16.029V8.40742H87.8133V18.7772C87.8133 19.2889 87.5631 19.7837 87.1436 20.0772C86.4339 20.5744 85.4548 20.4019 84.9576 19.6914C83.7202 17.9248 80.0089 12.6248 80.0089 12.6248V20.2432H77.5004V9.87335C77.5004 9.36172 77.7506 8.86692 78.17 8.57342C78.8797 8.07622 79.8589 8.24863 80.3561 8.95915ZM134.837 20.4806C138.366 20.4806 141.406 18.0403 141.406 14.3257C141.406 10.6112 138.366 8.17087 134.837 8.17087C131.308 8.17087 128.268 10.6112 128.268 14.3257C128.268 18.0411 131.308 20.4806 134.837 20.4806ZM138.629 14.3257C138.629 12.1036 137.086 10.3064 134.837 10.3064C132.588 10.3064 131.045 12.1036 131.045 14.3257C131.045 16.5479 132.588 18.345 134.837 18.345C137.086 18.345 138.629 16.5479 138.629 14.3257ZM100.798 20.244C100.798 20.244 97.5295 12.1533 96.4396 9.45636C96.094 8.5999 95.4035 8.17086 94.6529 8.17167C93.9023 8.17167 93.2126 8.5999 92.8662 9.45636C91.7764 12.1533 88.5077 20.244 88.5077 20.244H91.1637L92.2263 17.5407H97.0563L98.1189 20.244H100.798ZM96.2656 15.5286L94.6409 11.3947L93.0161 15.5286H96.2656ZM17.187 20.2432C19.2544 20.2432 20.4757 18.7147 20.4757 17.0475C20.4757 15.4508 19.2496 14.2584 17.6433 14.1557C18.8887 13.8109 19.8013 12.6697 19.8013 11.3433C19.8013 9.74188 18.4444 8.40827 16.4805 8.40827H10.7547C10.1693 8.40827 9.7491 8.82768 9.7491 9.41389V19.2376C9.7491 19.823 10.1685 20.2432 10.7547 20.2432H17.187ZM12.2567 13.2014H15.527C16.442 13.2014 17.0242 12.6056 17.0242 11.8702C17.0242 11.1348 16.442 10.539 15.527 10.539H12.2567V13.2014ZM16.1084 15.2135C17.0892 15.2135 17.7251 15.8622 17.7251 16.6633C17.7251 17.4637 17.0892 18.1132 16.1084 18.1132H12.2575V15.2135H16.1084ZM41.6909 16.029C41.6909 16.029 37.9779 10.7266 36.7405 8.95915C36.2433 8.24863 35.2642 8.07622 34.5545 8.57342C34.1351 8.86692 33.8849 9.36172 33.8849 9.87335V20.2432H36.3933V12.6248C36.3933 12.6248 40.1046 17.9248 41.342 19.6914C41.8392 20.4019 42.8184 20.5744 43.5281 20.0772C43.9475 19.7837 44.1977 19.2889 44.1977 18.7772V8.40742H41.6909V16.029ZM72.5333 20.2432H69.9294V8.40827H72.5333V20.2432ZM57.0905 14.2664C57.0905 18.1662 54.2211 20.2432 50.9653 20.2432H47.622C47.0358 20.2432 46.6164 19.823 46.6164 19.2376V9.41389C46.6164 8.82768 47.0366 8.40827 47.622 8.40827H50.9949C54.2508 8.40827 57.0905 10.288 57.0905 14.2664ZM50.4552 10.5382C52.2314 10.5382 54.3373 11.4388 54.3373 14.2664C54.3373 17.0146 52.4873 18.1133 50.3958 18.1133H49.1248V10.5382H50.4552ZM28.6883 9.45636C29.7781 12.1533 33.0468 20.244 33.0468 20.244H30.3675L29.305 17.5406H24.4749L23.4124 20.244H20.7564C20.7564 20.244 24.0251 12.1533 25.1149 9.45636C25.4613 8.5999 26.151 8.17166 26.9016 8.17166C27.6522 8.17166 28.3419 8.5999 28.6883 9.45636ZM26.8896 11.3947L28.5143 15.5286H25.2649L26.8896 11.3947ZM64.7336 9.45636C65.8235 12.1533 69.0921 20.244 69.0921 20.244H66.4129L65.3503 17.5407H60.5203L59.4577 20.244H56.8017C56.8017 20.244 60.0704 12.1533 61.1602 9.45636C61.5066 8.5999 62.1963 8.17167 62.9469 8.17167C63.6983 8.17086 64.388 8.5999 64.7336 9.45636ZM62.9349 11.3947L64.5596 15.5286H61.3101L62.9349 11.3947Z" fill="black"/>
</svg>
