<svg width="404" height="27" viewBox="0 0 404 27" fill="none" xmlns="http://www.w3.org/2000/svg">
<path d="M6.50607 7.11523H12.6424C14.2039 7.11523 15.4337 7.5274 16.216 8.27664C16.5126 8.55298 16.748 8.88915 16.9068 9.26324C17.0657 9.63732 17.1444 10.0409 17.1379 10.4477V10.486C17.1379 12.058 16.2001 12.9015 15.1845 13.4063C16.7857 13.9303 17.8996 14.8106 17.8996 16.5886V16.627C17.8996 18.9674 15.8875 20.2214 12.8424 20.2214H6.50607V7.11523ZM14.7307 10.8231C14.7307 9.79271 13.8722 9.15689 12.3298 9.15689H8.87206V12.6379H12.1537C13.6961 12.6379 14.7307 12.058 14.7307 10.8599V10.8231ZM12.6805 14.5853H8.87206V18.1814H12.8535C14.4736 18.1814 15.4892 17.5631 15.4892 16.3841V16.3458C15.4924 15.2419 14.5752 14.5853 12.6805 14.5853Z" fill="black"/>
<path d="M19.2421 17.3765V17.3381C19.2421 15.2038 20.9987 14.1558 23.5266 14.1558C24.4664 14.1461 25.4019 14.2852 26.2988 14.568V14.3236C26.2988 12.9193 25.4006 12.1701 23.7408 12.1701C22.725 12.1725 21.7203 12.3829 20.7877 12.7883L20.1434 11.0103C21.3727 10.4636 22.7049 10.1911 24.0487 10.2115C25.5911 10.2115 26.7463 10.6045 27.4667 11.3154C28.2284 12.0279 28.5775 13.0727 28.5775 14.3683V20.2281H26.2718V18.9932C25.5689 19.792 24.4946 20.431 22.9125 20.431C20.9797 20.4278 19.2421 19.3606 19.2421 17.3765ZM26.3305 16.664V15.9898C25.5779 15.7228 24.7848 15.5898 23.9868 15.5968C22.4634 15.5968 21.5652 16.2151 21.5652 17.2455V17.2822C21.5652 18.2407 22.4444 18.7807 23.5774 18.7807C25.1388 18.7807 26.3305 17.9196 26.3305 16.664Z" fill="black"/>
<path d="M30.9975 10.336H33.3777V11.852C34.0426 10.935 34.9995 10.1299 36.6006 10.1299C38.9238 10.1299 40.271 11.6284 40.271 13.9113V20.2215H37.9098V14.6046C37.9098 13.0694 37.1163 12.1891 35.7041 12.1891C34.3362 12.1891 33.3793 13.1061 33.3793 14.6413V20.2215H30.9991L30.9975 10.336Z" fill="black"/>
<path d="M42.2101 15.2979V15.2596C42.2101 11.983 44.5348 10.1299 46.9945 10.1299C48.694 10.1299 49.7683 10.9287 50.5109 11.8712V6.5498H52.8737V20.2183H50.5061V18.5745C49.7445 19.6033 48.6702 20.4276 46.9897 20.4276C44.5682 20.4276 42.2101 18.5745 42.2101 15.2979ZM50.549 15.2979V15.2596C50.549 13.3425 49.143 12.0965 47.561 12.0965C45.9408 12.0965 44.5936 13.3122 44.5936 15.2596V15.2979C44.5936 17.207 45.9598 18.4627 47.561 18.4627C49.1621 18.4627 50.5442 17.1878 50.5442 15.2979H50.549Z" fill="black"/>
<path d="M54.7462 17.3765V17.3381C54.7462 15.2038 56.5029 14.1558 59.0228 14.1558C59.9626 14.1461 60.8981 14.2852 61.795 14.568V14.3236C61.795 12.9193 60.8968 12.1701 59.237 12.1701C58.2228 12.1732 57.2197 12.3835 56.2886 12.7883L55.6444 11.0103C56.8737 10.4636 58.2059 10.1911 59.5496 10.2115C61.092 10.2115 62.2472 10.6045 62.9676 11.3154C63.7293 12.0279 64.0784 13.0727 64.0784 14.3683V20.2281H61.7727V18.9932C61.0698 19.792 59.9955 20.431 58.4134 20.431C56.4806 20.4278 54.7462 19.3606 54.7462 17.3765ZM61.8346 16.664V15.9898C61.082 15.7228 60.2889 15.5898 59.4909 15.5968C57.9675 15.5968 57.0694 16.2151 57.0694 17.2455V17.2822C57.0694 18.2407 57.9485 18.7807 59.0815 18.7807C60.6397 18.7807 61.8315 17.9196 61.8315 16.664H61.8346Z" fill="black"/>
<path d="M66.5571 6.6665H69.0961V8.81839H66.5571V6.6665ZM66.6349 10.3408H69.0151V20.2264H66.6349V10.3408Z" fill="black"/>
<path d="M75.3054 7.11523H77.527L84.8503 16.1781V7.11523H87.2131V20.2151H85.2137L77.6761 10.8902V20.2151H75.3054V7.11523Z" fill="black"/>
<path d="M89.3648 17.3765V17.3381C89.3648 15.2038 91.1231 14.1558 93.6493 14.1558C94.5897 14.1463 95.5257 14.2853 96.4231 14.568V14.3236C96.4231 12.9193 95.5234 12.1701 93.8636 12.1701C92.8493 12.1732 91.8463 12.3835 90.9152 12.7883L90.2709 11.0103C91.5003 10.4638 92.8324 10.1913 94.1762 10.2115C95.7202 10.2115 96.8738 10.6045 97.5942 11.3154C98.3559 12.0279 98.705 13.0727 98.705 14.3683V20.2281H96.3946V18.9932C95.6916 19.7919 94.6173 20.431 93.0368 20.431C91.1024 20.4278 89.3648 19.3606 89.3648 17.3765ZM96.4533 16.664V15.9898C95.7007 15.7226 94.9075 15.5897 94.1095 15.5968C92.5861 15.5968 91.688 16.215 91.688 17.2455V17.2822C91.688 18.2407 92.5671 18.7807 93.7001 18.7807C95.2616 18.7807 96.4533 17.9196 96.4533 16.664Z" fill="black"/>
<path d="M101.12 10.336H103.5V11.8329C104.164 10.9542 105.062 10.1299 106.644 10.1299C108.128 10.1299 109.183 10.8232 109.729 11.8712C110.549 10.8232 111.643 10.1299 113.206 10.1299C115.451 10.1299 116.817 11.4974 116.817 13.9113V20.2215H114.458V14.6046C114.458 13.0326 113.696 12.1891 112.369 12.1891C111.079 12.1891 110.162 13.0502 110.162 14.6413V20.2215H107.799V14.5854C107.799 13.0502 107.019 12.1891 105.709 12.1891C104.4 12.1891 103.504 13.1253 103.504 14.6413V20.2215H101.123L101.12 10.336Z" fill="black"/>
<path d="M118.715 15.3361V15.2994C118.715 12.4909 120.98 10.1313 124.085 10.1313C126.018 10.1313 127.229 10.8247 128.211 11.8343L126.727 13.352C126.005 12.6395 125.243 12.1155 124.072 12.1155C122.346 12.1139 121.076 13.5373 121.076 15.2594V15.2978C121.076 17.0551 122.346 18.4625 124.161 18.4625C125.272 18.4625 126.075 17.9832 126.837 17.2452L128.265 18.5935C127.251 19.6782 126.059 20.4467 124.047 20.4467C120.98 20.4483 118.715 18.143 118.715 15.3361Z" fill="black"/>
<path d="M129.182 15.3361V15.2994C129.182 12.4717 131.526 10.1313 134.688 10.1313C137.851 10.1313 140.176 12.435 140.176 15.261V15.2994C140.176 18.1079 137.832 20.4483 134.65 20.4483C131.505 20.4483 129.182 18.143 129.182 15.3361ZM137.813 15.3361V15.2994C137.821 14.8791 137.744 14.4616 137.588 14.0718C137.432 13.682 137.199 13.3279 136.904 13.0307C136.609 12.7334 136.257 12.4992 135.87 12.342C135.482 12.1847 135.068 12.1077 134.65 12.1155C132.756 12.1139 131.55 13.5373 131.55 15.2594V15.2978C131.543 15.7151 131.62 16.1294 131.776 16.5162C131.932 16.903 132.163 17.2544 132.456 17.5495C132.75 17.8446 133.099 18.0775 133.483 18.2343C133.867 18.3912 134.279 18.4688 134.693 18.4625C136.602 18.4625 137.813 17.0391 137.813 15.3361Z" fill="black"/>
<path d="M145.78 7.11523H155.916V9.17446H148.183V12.582H155.035V14.6588H148.183V18.1606H156.012V20.2198H145.78V7.11523Z" fill="black"/>
<path d="M158.18 10.336H160.56V11.852C161.224 10.935 162.18 10.1299 163.782 10.1299C166.106 10.1299 167.454 11.6284 167.454 13.9113V20.2215H165.091V14.6046C165.091 13.0694 164.289 12.1891 162.883 12.1891C161.517 12.1891 160.56 13.1061 160.56 14.6413V20.2215H158.18V10.336Z" fill="black"/>
<path d="M170.405 17.4881V12.2833H169.096V10.3359H170.405V7.62012H172.768V10.3359H175.54V12.2833H172.768V17.1319C172.768 18.0121 173.244 18.3684 174.037 18.3684C174.545 18.3708 175.046 18.2554 175.502 18.0313V19.8844C174.848 20.2371 174.114 20.4116 173.373 20.3908C171.635 20.3908 170.405 19.6608 170.405 17.4881Z" fill="black"/>
<path d="M176.692 15.3155V15.2788C176.692 12.4511 178.782 10.1299 181.73 10.1299C185.012 10.1299 186.672 12.6013 186.672 15.4465C186.672 15.6526 186.651 15.8587 186.632 16.0855H179.055C179.309 17.6958 180.501 18.5952 182.024 18.5952C183.176 18.5952 183.996 18.1831 184.817 17.4147L186.202 18.5952C185.226 19.7135 183.879 20.4484 181.984 20.4484C178.996 20.4484 176.692 18.3716 176.692 15.3155ZM184.328 14.5854C184.169 13.1253 183.273 11.983 181.711 11.983C180.266 11.983 179.25 13.0502 179.036 14.5854H184.328Z" fill="black"/>
<path d="M188.643 10.3362H191.023V12.5727C191.667 11.0934 192.859 10.0822 194.673 10.1572V12.5535H194.547C192.484 12.5535 191.033 13.846 191.033 16.4659V20.2297H188.652L188.643 10.3362Z" fill="black"/>
<path d="M196.826 17.4881V12.2833H195.517V10.3359H196.826V7.62012H199.189V10.3359H201.961V12.2833H199.189V17.1319C199.189 18.0121 199.665 18.3684 200.458 18.3684C200.966 18.3711 201.467 18.2558 201.923 18.0313V19.8844C201.27 20.2373 200.536 20.4119 199.795 20.3908C198.056 20.3908 196.826 19.6608 196.826 17.4881Z" fill="black"/>
<path d="M203.275 17.3765V17.3381C203.275 15.2038 205.033 14.1558 207.56 14.1558C208.499 14.1462 209.435 14.2853 210.332 14.568V14.3236C210.332 12.9193 209.434 12.1701 207.774 12.1701C206.76 12.173 205.757 12.3833 204.825 12.7883L204.181 11.0103C205.41 10.4636 206.743 10.1911 208.086 10.2115C209.629 10.2115 210.784 10.6045 211.503 11.3154C212.265 12.0279 212.614 13.0727 212.614 14.3683V20.2281H210.31V18.9932C209.607 19.792 208.532 20.431 206.95 20.431C205.008 20.4278 203.275 19.3606 203.275 17.3765ZM210.365 16.664V15.9898C209.612 15.7228 208.819 15.5898 208.021 15.5968C206.498 15.5968 205.6 16.2151 205.6 17.2455V17.2822C205.6 18.2407 206.479 18.7807 207.61 18.7807C209.167 18.7807 210.359 17.9196 210.359 16.664H210.365Z" fill="black"/>
<path d="M215.084 6.6665H217.623V8.81839H215.084V6.6665ZM215.162 10.3408H217.542V20.2264H215.162V10.3408Z" fill="black"/>
<path d="M220.219 10.336H222.6V11.852C223.265 10.935 224.221 10.1299 225.823 10.1299C228.146 10.1299 229.493 11.6284 229.493 13.9113V20.2215H227.13V14.6046C227.13 13.0694 226.337 12.1891 224.924 12.1891C223.557 12.1891 222.6 13.1061 222.6 14.6413V20.2215H220.219V10.336Z" fill="black"/>
<path d="M231.935 10.336H234.315V11.8329C234.979 10.9542 235.877 10.1299 237.459 10.1299C238.943 10.1299 239.998 10.8232 240.544 11.8712C241.364 10.8232 242.459 10.1299 244.02 10.1299C246.266 10.1299 247.634 11.4974 247.634 13.9113V20.2215H245.271V14.6046C245.271 13.0326 244.509 12.1891 243.181 12.1891C241.892 12.1891 240.974 13.0502 240.974 14.6413V20.2215H238.614V14.5854C238.614 13.0502 237.833 12.1891 236.524 12.1891C235.215 12.1891 234.319 13.1253 234.319 14.6413V20.2215H231.938L231.935 10.336Z" fill="black"/>
<path d="M249.53 15.3155V15.2788C249.53 12.4511 251.62 10.1299 254.568 10.1299C257.848 10.1299 259.51 12.6013 259.51 15.4465C259.51 15.6526 259.489 15.8587 259.47 16.0855H251.893C252.147 17.6958 253.338 18.5952 254.862 18.5952C256.014 18.5952 256.834 18.1831 257.653 17.4147L259.04 18.5952C258.064 19.7135 256.717 20.4484 254.822 20.4484C251.832 20.4484 249.53 18.3716 249.53 15.3155ZM257.166 14.5854C257.007 13.1253 256.111 11.983 254.549 11.983C253.104 11.983 252.088 13.0502 251.874 14.5854H257.166Z" fill="black"/>
<path d="M261.481 10.336H263.861V11.852C264.524 10.935 265.481 10.1299 267.082 10.1299C269.407 10.1299 270.754 11.6284 270.754 13.9113V20.2215H268.391V14.6046C268.391 13.0694 267.598 12.1891 266.184 12.1891C264.818 12.1891 263.861 13.1061 263.861 14.6413V20.2215H261.481V10.336Z" fill="black"/>
<path d="M273.706 17.4881V12.2833H272.396V10.3359H273.706V7.62012H276.068V10.3359H278.841V12.2833H276.068V17.1319C276.068 18.0121 276.545 18.3684 277.338 18.3684C277.845 18.3708 278.347 18.2554 278.803 18.0313V19.8844C278.149 20.2371 277.415 20.4116 276.673 20.3908C274.935 20.3908 273.706 19.6608 273.706 17.4881Z" fill="black"/>
<path d="M289.282 7.0293H291.504L297.518 20.2298H294.979L293.594 17.065H287.14L285.734 20.2298H283.273L289.282 7.0293ZM292.726 15.017L290.363 9.77387L288.013 15.017H292.726Z" fill="black"/>
<path d="M299.189 10.336H301.569V11.8329C302.234 10.9542 303.132 10.1299 304.714 10.1299C306.198 10.1299 307.253 10.8232 307.799 11.8712C308.619 10.8232 309.713 10.1299 311.274 10.1299C313.521 10.1299 314.887 11.4974 314.887 13.9113V20.2215H312.525V14.6046C312.525 13.0326 311.763 12.1891 310.435 12.1891C309.146 12.1891 308.229 13.0502 308.229 14.6413V20.2215H305.866V14.5854C305.866 13.0502 305.084 12.1891 303.776 12.1891C302.469 12.1891 301.569 13.1253 301.569 14.6413V20.2215H299.189V10.336Z" fill="black"/>
<path d="M316.782 15.3155V15.2788C316.782 12.4511 318.872 10.1299 321.82 10.1299C325.102 10.1299 326.762 12.6013 326.762 15.4465C326.762 15.6526 326.743 15.8587 326.722 16.0855H319.147C319.4 17.6958 320.591 18.5952 322.114 18.5952C323.266 18.5952 324.086 18.1831 324.907 17.4147L326.294 18.5952C325.316 19.7135 323.969 20.4484 322.074 20.4484C319.088 20.4484 316.782 18.3716 316.782 15.3155ZM324.418 14.5854C324.259 13.1253 323.364 11.983 321.801 11.983C320.357 11.983 319.342 13.0502 319.126 14.5854H324.418Z" fill="black"/>
<path d="M328.734 10.3362H331.115V12.5727C331.759 11.0934 332.951 10.0822 334.764 10.1572V12.5535H334.628C332.565 12.5535 331.113 13.846 331.113 16.4659V20.2297H328.733L328.734 10.3362Z" fill="black"/>
<path d="M336.467 6.6665H339.006V8.81839H336.467V6.6665ZM336.545 10.3408H338.925V20.2264H336.545V10.3408Z" fill="black"/>
<path d="M341.056 15.3361V15.2994C341.056 12.4909 343.321 10.1313 346.426 10.1313C348.359 10.1313 349.57 10.8247 350.552 11.8343L349.068 13.352C348.346 12.6395 347.584 12.1155 346.412 12.1155C344.695 12.1155 343.425 13.5389 343.425 15.261V15.2994C343.425 17.0567 344.695 18.4641 346.51 18.4641C347.621 18.4641 348.424 17.9849 349.186 17.2468L350.614 18.5951C349.598 19.6798 348.408 20.4483 346.396 20.4483C343.321 20.4483 341.056 18.143 341.056 15.3361Z" fill="black"/>
<path d="M351.678 17.3765V17.3381C351.678 15.2038 353.437 14.1558 355.955 14.1558C356.895 14.1463 357.831 14.2853 358.729 14.568V14.3236C358.729 12.9193 357.831 12.1701 356.169 12.1701C355.155 12.1732 354.152 12.3835 353.221 12.7883L352.577 11.0103C353.806 10.4638 355.138 10.1913 356.482 10.2115C358.026 10.2115 359.18 10.6045 359.9 11.3154C360.662 12.0279 361.011 13.0727 361.011 14.3683V20.2281H358.707V18.9932C358.004 19.7919 356.929 20.431 355.349 20.431C353.416 20.4278 351.678 19.3606 351.678 17.3765ZM358.767 16.664V15.9898C358.014 15.7226 357.221 15.5897 356.423 15.5968C354.901 15.5968 354.002 16.215 354.002 17.2455V17.2822C354.002 18.2407 354.881 18.7807 356.014 18.7807C357.577 18.7807 358.767 17.9196 358.767 16.664Z" fill="black"/>
<path d="M367.184 7.11523H369.586V20.2151H367.184V7.11523Z" fill="black"/>
<path d="M372.553 10.336H374.934V11.852C375.599 10.935 376.556 10.1299 378.157 10.1299C380.48 10.1299 381.827 11.6284 381.827 13.9113V20.2215H379.464V14.6046C379.464 13.0694 378.671 12.1891 377.258 12.1891C375.891 12.1891 374.934 13.1061 374.934 14.6413V20.2215H372.553V10.336Z" fill="black"/>
<path d="M383.723 15.3361V15.2994C383.723 12.4909 385.988 10.1313 389.093 10.1313C391.026 10.1313 392.237 10.8247 393.219 11.8343L391.734 13.352C391.012 12.6395 390.25 12.1155 389.079 12.1155C387.36 12.1155 386.091 13.5389 386.091 15.261V15.2994C386.091 17.0567 387.36 18.4641 389.176 18.4641C390.286 18.4641 391.089 17.9849 391.851 17.2468L393.279 18.5951C392.264 19.6798 391.072 20.4483 389.06 20.4483C385.988 20.4483 383.723 18.143 383.723 15.3361Z" fill="black"/>
<path d="M394.893 17.6382H397.491V20.2214H394.893V17.6382Z" fill="black"/>
</svg>
