<svg width="141" height="85" viewBox="0 0 141 85" fill="none" xmlns="http://www.w3.org/2000/svg">
<g clip-path="url(#clip0_732_7975)">
<path d="M133.344 0H7.65642C3.42739 0 0 3.43559 0 7.67475V59.5591C0 61.8451 0.905375 64.0374 2.51905 65.6535L21.0296 84.2083V74.8492H133.344C137.571 74.8492 141 71.4136 141 67.1745V7.67475C141 3.43707 137.573 0 133.344 0ZM134.382 68.59H21.0296V74.8492L6.61769 60.4028V6.25922H134.382V68.59Z" fill="#E60000"/>
<path d="M80.4851 42.6234V60.4044H76.1849V47.3141C76.1849 47.3141 72.5115 52.5737 71.2861 54.3264C70.317 55.7137 68.2662 55.7137 67.2971 54.3264C66.0732 52.5737 62.3983 47.3141 62.3983 47.3141V60.4044H58.0981V42.6234C58.0981 41.7233 58.519 40.8573 59.2569 40.3449C60.4735 39.4997 62.1434 39.7983 62.994 41.0148C64.5676 43.268 69.2916 50.0308 69.2916 50.0308C69.2916 50.0308 74.0141 43.2695 75.5892 41.0148C76.4398 39.7983 78.1098 39.4997 79.3263 40.3449C80.0642 40.8573 80.4851 41.7248 80.4851 42.6234V42.6234ZM30.11 53.1634C30.11 53.1634 23.7457 44.0523 21.6238 41.0148C20.7718 39.7938 19.0929 39.4982 17.8764 40.3523C17.1577 40.8573 16.7294 41.7069 16.7294 42.5863C16.7294 47.0467 16.7294 60.4029 16.7294 60.4029H21.0296V47.3126C21.0296 47.3126 27.3909 56.4192 29.5114 59.4553C30.3634 60.6762 32.0423 60.9718 33.2588 60.1177C33.9775 59.6127 34.4058 58.7631 34.4058 57.8838V40.0671H30.11V53.1619V53.1634ZM95.1237 43.3215C97.2086 43.3215 99.0934 44.2498 100.414 45.6431L102.833 42.2803C100.796 40.6063 98.0814 39.6616 95.1222 39.6616C88.8898 39.6616 83.5227 43.8533 83.5227 50.2358C83.5227 56.6183 88.8898 60.8099 95.1222 60.8099C98.0799 60.8099 100.796 59.8652 102.833 58.1912L100.414 54.8284C99.0934 56.2232 97.2086 57.15 95.1237 57.15C91.151 57.15 88.426 54.0546 88.426 50.2358C88.426 46.417 91.151 43.3215 95.1237 43.3215ZM126.269 50.2358C126.269 56.6183 121.061 60.8099 115.009 60.8099C108.958 60.8099 103.749 56.6183 103.749 50.2358C103.749 43.8533 108.958 39.6616 115.009 39.6616C121.061 39.6616 126.269 43.8533 126.269 50.2358ZM121.511 50.2358C121.511 46.417 118.866 43.3304 115.011 43.3304C111.155 43.3304 108.51 46.4184 108.51 50.2358C108.51 54.0531 111.155 57.1411 115.011 57.1411C118.866 57.1411 121.511 54.0531 121.511 50.2358ZM49.194 41.8688C51.0611 46.5031 56.6652 60.4029 56.6652 60.4029H52.0717L50.2506 55.7583H41.9718L40.1507 60.4029H35.5986C35.5986 60.4029 41.2013 46.5016 43.0698 41.8688C43.6625 40.3969 44.845 39.6616 46.1327 39.6616C47.4203 39.6616 48.6028 40.3984 49.1955 41.8688H49.194ZM48.8962 52.3019L46.1119 45.199L43.3276 52.3019H48.8962V52.3019ZM35.117 29.2925C35.117 32.1562 33.0232 34.7838 29.4803 34.7838H18.4528C17.4481 34.7838 16.728 34.0619 16.728 33.0548C16.728 28.835 16.728 20.3953 16.728 16.1754C16.728 15.1684 17.4481 14.4465 18.4528 14.4465H28.2667C31.6318 14.4465 33.9583 16.7384 33.9583 19.4892C33.9583 21.7678 32.395 23.7284 30.2597 24.3225C33.0129 24.4993 35.1155 26.5476 35.1155 29.291L35.117 29.2925ZM21.0296 22.6827H26.6352C28.203 22.6827 29.2017 21.6578 29.2017 20.3953C29.2017 19.1313 28.2045 18.1079 26.6352 18.1079H21.0296V22.6827ZM30.4019 28.6315C30.4019 27.2561 29.3114 26.1406 27.631 26.1406H21.0296V31.1224H27.631C29.3128 31.1224 30.4019 30.0069 30.4019 28.6315V28.6315ZM62.3998 21.6935C62.3998 21.6935 68.7611 30.8001 70.8816 33.8361C71.7336 35.0571 73.4125 35.3527 74.629 34.4986C75.3477 33.9936 75.7759 33.144 75.7759 32.2646V14.4465H71.4802V27.5413C71.4802 27.5413 65.1159 18.4302 62.994 15.3927C62.1419 14.1717 60.4631 13.8761 59.2465 14.7302C58.5279 15.2352 58.0996 16.0848 58.0996 16.9642C58.0996 21.4246 58.0996 34.7808 58.0996 34.7808H62.3998V21.6905V21.6935ZM124.348 14.4465H119.884V34.7823H124.348V14.4465V14.4465ZM87.3784 34.7823H81.6468C80.6421 34.7823 79.922 34.0604 79.922 33.0534V16.1754C79.922 15.1684 80.6421 14.4465 81.6468 14.4465H87.4287C93.0092 14.4465 97.8769 17.6771 97.8769 24.5127C97.8769 31.3482 92.9588 34.7823 87.3784 34.7823V34.7823ZM86.4019 31.1224C89.9878 31.1224 93.1574 29.236 93.1574 24.5127C93.1574 19.7893 89.5477 18.1064 86.5026 18.1064H84.2221V31.1209H86.4004L86.4019 31.1224ZM49.1926 16.2482C51.0596 20.8825 56.6638 34.7823 56.6638 34.7823H52.0702L50.2491 30.1376H41.9703L40.1492 34.7823H35.5971C35.5971 34.7823 41.1998 20.881 43.0683 16.2482C43.661 14.7763 44.8435 14.041 46.1312 14.041C47.4189 14.041 48.6013 14.7777 49.194 16.2482H49.1926ZM48.8947 26.6813L46.1104 19.5784L43.3261 26.6813H48.8947V26.6813ZM97.3834 34.7823C97.3834 34.7823 102.986 20.881 104.855 16.2482C105.447 14.7763 106.63 14.041 107.917 14.041C109.205 14.041 110.388 14.7777 110.98 16.2482C112.847 20.8825 118.452 34.7823 118.452 34.7823H113.858L112.037 30.1376H103.758L101.937 34.7823H97.3849H97.3834ZM105.112 26.6813H110.681L107.897 19.5784L105.112 26.6813V26.6813Z" fill="black"/>
</g>
<defs>
<clipPath id="clip0_732_7975">
<rect width="141" height="84.2083" fill="white"/>
</clipPath>
</defs>
</svg>
