<svg width="141" height="32" viewBox="0 0 141 32" fill="none" xmlns="http://www.w3.org/2000/svg">
<g clip-path="url(#clip0_155_2902)">
<path d="M137.772 0H4.22854C3.10706 0 2.03152 0.445203 1.23851 1.23767C0.445505 2.03014 6.91867e-09 3.10495 6.91867e-09 4.22567V18.6863C-3.3666e-05 19.3095 0.122847 19.9266 0.361617 20.5024C0.600387 21.0782 0.950366 21.6012 1.39155 22.0418L11.6144 32.2585V27.105H137.772C138.327 27.105 138.877 26.9957 139.39 26.7833C139.903 26.5709 140.369 26.2597 140.762 25.8673C141.155 25.4749 141.466 25.009 141.678 24.4963C141.891 23.9837 142 23.4342 142 22.8793V4.22567C142 3.67078 141.891 3.12131 141.678 2.60863C141.466 2.09596 141.155 1.63012 140.762 1.23772C140.369 0.845316 139.903 0.534044 139.39 0.321675C138.877 0.109306 138.327 -8.94582e-09 137.772 0ZM138.345 23.6584H11.6144V27.105L3.65537 19.1506V3.44654H138.345V23.6584Z" fill="#E60000"/>
<path d="M108.576 9.36107V19.1476H106.201V11.9405L103.496 15.8012C103.372 15.978 103.207 16.1222 103.016 16.2218C102.824 16.3214 102.611 16.3734 102.395 16.3734C102.179 16.3734 101.966 16.3214 101.775 16.2218C101.583 16.1222 101.418 15.978 101.294 15.8012L98.5895 11.9405V19.1476H96.2141V9.36107C96.2121 9.11604 96.2692 8.87413 96.3806 8.65584C96.492 8.43754 96.6544 8.24929 96.854 8.10703C97.177 7.88336 97.5754 7.79659 97.9623 7.86568C98.3491 7.93477 98.6928 8.15411 98.9182 8.47573L102.396 13.4396L105.874 8.47573C106.099 8.15411 106.443 7.93477 106.83 7.86568C107.216 7.79659 107.615 7.88336 107.938 8.10703C108.137 8.24946 108.299 8.43778 108.41 8.65607C108.522 8.87435 108.578 9.11617 108.576 9.36107ZM80.7545 15.164L76.0682 8.47573C75.9562 8.31593 75.8138 8.17972 75.6492 8.0749C75.4846 7.97007 75.3009 7.89868 75.1087 7.86479C74.9164 7.83091 74.7194 7.83519 74.5288 7.87741C74.3382 7.91962 74.1578 7.99894 73.9979 8.11082C73.8018 8.25065 73.642 8.43527 73.5317 8.64931C73.4214 8.86335 73.364 9.10061 73.364 9.34135V19.1507H75.7394V11.9435L80.4235 18.6287C80.5354 18.7885 80.6778 18.9247 80.8424 19.0296C81.007 19.1344 81.1907 19.2058 81.383 19.2397C81.5752 19.2735 81.7722 19.2693 81.9628 19.227C82.1534 19.1848 82.3338 19.1055 82.4937 18.9936C82.6898 18.8538 82.8496 18.6692 82.9599 18.4551C83.0702 18.2411 83.1277 18.0038 83.1276 17.7631V7.95454H80.7545V15.164ZM116.663 9.74571C117.211 9.74988 117.753 9.86534 118.255 10.0851C118.757 10.3048 119.209 10.6243 119.584 11.024L120.921 9.17217C119.796 8.25041 118.297 7.73074 116.663 7.73074C113.22 7.73074 110.256 10.0393 110.256 13.5534C110.256 17.0674 113.217 19.376 116.663 19.376C118.297 19.376 119.796 18.8556 120.921 17.9346L119.584 16.0812C119.209 16.4809 118.757 16.8004 118.255 17.0201C117.753 17.2399 117.211 17.3553 116.663 17.3595C114.469 17.3595 112.964 15.6548 112.964 13.5526C112.964 11.4504 114.469 9.74571 116.663 9.74571ZM133.864 13.5526C133.864 17.0667 130.988 19.3752 127.646 19.3752C124.304 19.3752 121.427 17.0667 121.427 13.5526C121.427 10.0385 124.305 7.72998 127.646 7.72998C130.987 7.72998 133.864 10.0385 133.864 13.5526ZM131.236 13.5526C131.236 11.4504 129.775 9.75026 127.646 9.75026C125.516 9.75026 124.056 11.4504 124.056 13.5526C124.056 15.6548 125.516 17.355 127.646 17.355C129.775 17.355 131.236 15.6548 131.236 13.5526ZM91.2962 8.94609L95.4222 19.1507H92.8859L91.88 16.594H87.3076L86.3017 19.1507H83.7873L87.9134 8.94609C88.2413 8.13586 88.8942 7.73226 89.6048 7.73226C90.3154 7.73226 90.969 8.13358 91.2962 8.94609ZM91.1315 14.6906L89.5972 10.7797L88.0591 14.6906H91.1315ZM19.3837 16.1282C19.3837 17.7047 18.2275 19.1507 16.2712 19.1507H10.1811C10.0548 19.1556 9.92876 19.1343 9.811 19.0883C9.69324 19.0422 9.58628 18.9723 9.49682 18.883C9.40736 18.7937 9.33734 18.6868 9.29115 18.5692C9.24496 18.4515 9.2236 18.3256 9.2284 18.1993V8.90589C9.2236 8.7796 9.24496 8.65369 9.29115 8.53604C9.33734 8.4184 9.40736 8.31156 9.49682 8.22224C9.58628 8.13291 9.69324 8.06302 9.811 8.01696C9.92876 7.97089 10.0548 7.94964 10.1811 7.95454H15.6008C17.46 7.95454 18.7445 9.21617 18.7445 10.7312C18.7402 11.3364 18.5383 11.9237 18.1696 12.4039C17.8009 12.8841 17.2855 13.2309 16.7016 13.3918C18.223 13.4889 19.3837 14.617 19.3837 16.1282ZM11.6031 12.4867H14.6989C15.5651 12.4867 16.1163 11.923 16.1163 11.2273C16.1163 10.5317 15.5651 9.96723 14.6989 9.96723H11.6031V12.4867ZM16.7798 15.7618C16.7798 15.0031 16.1778 14.3902 15.2493 14.3902H11.6053V17.1334H15.2493C16.1778 17.1357 16.7798 16.5212 16.7798 15.7641V15.7618ZM39.4674 15.1617L34.7803 8.47346C34.6684 8.31368 34.5261 8.17749 34.3616 8.07267C34.197 7.96786 34.0134 7.89647 33.8212 7.86258C33.629 7.82869 33.4321 7.83297 33.2415 7.87518C33.051 7.91738 32.8707 7.99668 32.7108 8.10855C32.5147 8.24837 32.3549 8.43299 32.2446 8.64703C32.1344 8.86107 32.0769 9.09834 32.0769 9.33907V19.1484H34.4516V11.9412L39.1364 18.6264C39.2483 18.7862 39.3906 18.9224 39.5551 19.0272C39.7197 19.132 39.9033 19.2034 40.0955 19.2373C40.2877 19.2712 40.4846 19.2669 40.6752 19.2247C40.8657 19.1825 41.046 19.1032 41.2059 18.9914C41.4021 18.8516 41.562 18.667 41.6722 18.453C41.7825 18.2389 41.8399 18.0016 41.8398 17.7608V7.95454H39.4674V15.1617ZM66.1998 19.1507H68.6648V7.95454H66.1998V19.1507ZM54.0456 13.4965C54.0456 17.1858 51.3293 19.1507 48.2479 19.1507H45.0822C44.9558 19.1556 44.8298 19.1343 44.7121 19.0883C44.5944 19.0422 44.4875 18.9723 44.3981 18.8829C44.3087 18.7936 44.2387 18.6868 44.1926 18.5691C44.1465 18.4515 44.1253 18.3256 44.1302 18.1993V8.90589C44.1253 8.77964 44.1465 8.65374 44.1926 8.5361C44.2387 8.41845 44.3087 8.31161 44.3981 8.22227C44.4875 8.13293 44.5944 8.06303 44.7121 8.01696C44.8298 7.97089 44.9558 7.94963 45.0822 7.95454H48.2752C51.3574 7.95454 54.0456 9.73281 54.0456 13.4965ZM51.4394 13.4965C51.4394 10.8222 49.4458 9.96951 47.7643 9.96951H46.5048V17.1357H47.7081C49.688 17.1357 51.4394 16.0994 51.4394 13.4965ZM27.1583 8.94458L31.2844 19.1492H28.7472L27.7421 16.5925H23.1704L22.1645 19.1492H19.6494L23.7778 8.94609C24.105 8.13586 24.7586 7.73226 25.4692 7.73226C26.1798 7.73226 26.8304 8.13358 27.1583 8.94609V8.94458ZM26.9936 14.6891L25.4555 10.7797L23.9182 14.6906L26.9936 14.6891ZM61.2804 8.94609L65.4065 19.1507H62.8747L61.8688 16.594H57.2925L56.2866 19.1507H53.7723C53.7723 19.1507 56.8674 11.4974 57.8983 8.94609C58.2263 8.13586 58.8792 7.73226 59.5898 7.73226C60.3003 7.73226 60.954 8.13358 61.2804 8.94609ZM61.1157 14.6906L59.5784 10.7797L58.0403 14.6906H61.1157Z" fill="white"/>
</g>
<defs>
<clipPath id="clip0_155_2902">
<rect width="141" height="32" fill="white"/>
</clipPath>
</defs>
</svg>
